<svg width="122" height="76" viewBox="0 0 122 76" fill="none" xmlns="http://www.w3.org/2000/svg">
<path d="M19.1634 32.9953C13.4852 34.237 8.52428 37.2379 5.21254 41.4343C1.90081 45.6306 0.466273 50.7334 1.17845 55.7841C1.89062 60.8348 4.70049 65.4856 9.08014 68.8628C13.4598 72.24 19.1077 74.1111 24.9629 74.1246H91.0024C95.2412 74.1221 99.4313 73.3394 103.297 71.8282C107.163 70.3169 110.616 68.1113 113.43 65.3565C116.244 62.6017 118.355 59.3602 119.624 55.8454C120.893 52.3305 121.29 48.622 120.791 44.9639C120.292 41.3058 118.906 37.7811 116.727 34.6218C114.547 31.4625 111.622 28.7402 108.144 26.6341C104.666 24.528 100.715 23.0859 96.5497 22.4026C92.3845 21.7194 88.1 21.8105 83.9782 22.67L75.9934 24.5587" fill="#100E1D"/>
<path d="M19.1634 32.9953C13.4852 34.237 8.52428 37.2379 5.21254 41.4343C1.90081 45.6306 0.466273 50.7334 1.17845 55.7841C1.89062 60.8348 4.70049 65.4856 9.08014 68.8628C13.4598 72.24 19.1077 74.1111 24.9629 74.1246H91.0024C95.2412 74.1221 99.4313 73.3394 103.297 71.8282C107.163 70.3169 110.616 68.1113 113.43 65.3565C116.244 62.6017 118.355 59.3602 119.624 55.8454C120.893 52.3305 121.29 48.622 120.791 44.9639C120.292 41.3058 118.906 37.7811 116.727 34.6218C114.547 31.4625 111.622 28.7402 108.144 26.6341C104.666 24.528 100.715 23.0859 96.5497 22.4026C92.3845 21.7194 88.1 21.8105 83.9782 22.67L75.9934 24.5587" stroke="white" stroke-width="2" stroke-linecap="round" stroke-linejoin="round"/>
<path d="M83.9779 22.6699C81.926 15.6085 76.8612 9.48925 69.8102 5.55276C62.7593 1.61627 54.2498 0.157033 46.0067 1.47086C37.7637 2.78468 30.4039 6.77327 25.4192 12.6281C20.4346 18.4829 18.1981 25.7658 19.1631 33.0005C19.1631 33.0005 20.0816 37.6023 21.9608 40.211" fill="#100E1D"/>
<path d="M83.9779 22.6699C81.926 15.6085 76.8612 9.48925 69.8102 5.55276C62.7593 1.61627 54.2498 0.157033 46.0067 1.47086C37.7637 2.78468 30.4039 6.77327 25.4192 12.6281C20.4346 18.4829 18.1981 25.7658 19.1631 33.0005C19.1631 33.0005 20.0816 37.6023 21.9608 40.211" stroke="white" stroke-width="2" stroke-linecap="round" stroke-linejoin="round"/>
</svg>
